<?xml version="1.0" encoding="UTF-8" standalone="no"?>
<!-- Created with Inkscape (http://www.inkscape.org/) -->

<svg
   xmlns:dc="http://purl.org/dc/elements/1.1/"
   xmlns:cc="http://creativecommons.org/ns#"
   xmlns:rdf="http://www.w3.org/1999/02/22-rdf-syntax-ns#"
   xmlns:svg="http://www.w3.org/2000/svg"
   xmlns="http://www.w3.org/2000/svg"
   xmlns:sodipodi="http://sodipodi.sourceforge.net/DTD/sodipodi-0.dtd"
   xmlns:inkscape="http://www.inkscape.org/namespaces/inkscape"
   width="210mm"
   height="297mm"
   viewBox="0 0 210 297"
   version="1.1"
   id="svg8"
   inkscape:version="0.92.3 (2405546, 2018-03-11)"
   sodipodi:docname="favicon.svg">
  <defs
     id="defs2">
    <clipPath
       clipPathUnits="userSpaceOnUse"
       id="clipPath4649-1">
      <circle
         style="opacity:1;fill:#ffffff;fill-opacity:1;stroke:#000000;stroke-width:5;stroke-linecap:round;stroke-linejoin:bevel;stroke-miterlimit:4;stroke-dasharray:none;stroke-dashoffset:0;stroke-opacity:1"
         id="circle4651-1"
         cx="234.77606"
         cy="1280.7505"
         r="89.90358" />
    </clipPath>
  </defs>
  <sodipodi:namedview
     id="base"
     pagecolor="#ffffff"
     bordercolor="#666666"
     borderopacity="1.0"
     inkscape:pageopacity="0.0"
     inkscape:pageshadow="2"
     inkscape:zoom="15.839192"
     inkscape:cx="-253.2023"
     inkscape:cy="-50.759618"
     inkscape:document-units="mm"
     inkscape:current-layer="layer1"
     showgrid="false"
     inkscape:window-width="1920"
     inkscape:window-height="1028"
     inkscape:window-x="0"
     inkscape:window-y="24"
     inkscape:window-maximized="1" />
  <metadata
     id="metadata5">
    <rdf:RDF>
      <cc:Work
         rdf:about="">
        <dc:format>image/svg+xml</dc:format>
        <dc:type
           rdf:resource="http://purl.org/dc/dcmitype/StillImage" />
        <dc:title />
      </cc:Work>
    </rdf:RDF>
  </metadata>
  <g
     inkscape:label="Layer 1"
     inkscape:groupmode="layer"
     id="layer1">
    <g
       id="g556"
       transform="matrix(0.7108532,0,0,0.7108532,-6.3950221,87.809727)"
       inkscape:export-filename="/home/daielchom/Documents/Proyectos/daielchom.github.io/resume/public/favicon.ico.png"
       inkscape:export-xdpi="95.999992"
       inkscape:export-ydpi="95.999992">
      <path
         sodipodi:nodetypes="sccccccccccccccccccccccccssccscss"
         inkscape:connector-curvature="0"
         id="path5292-9-0-7-0-4"
         d="m -77.915299,305.14293 c 0,0 -0.60651,0 -0.89948,0.74529 0,0 -0.40093,-0.56542 -0.91492,-0.64252 0,0 0.39579,0.24158 0.34439,0.74015 0,0 -0.72559,-0.15257 -1.24896,0.64701 0,0 0.42155,-0.15988 0.5524,0.0328 0,0 -0.65528,0.23904 -0.66813,0.55258 0,0 0.0103,0.32889 -0.30839,0.48823 0,0 0.18088,0.0211 0.3116,-0.0255 0.0405,-0.0303 0.0743,-0.0395 0.0743,-0.0395 -0.021,0.0169 -0.0466,0.0296 -0.0743,0.0395 -0.1003,0.0751 -0.24302,0.28371 -0.0256,0.83243 0,0 0.24714,0.48707 -0.31984,0.79237 0,0 0.19622,0.007 0.46153,-0.1999 0.501434,1.18962 2.447626,1.35795 3.42119,1.02324 0,0 1.34906,-0.54316 1.25456,-2.01876 0,0 0.16715,0.007 0.30889,0.18172 0,0 0.11672,-0.27257 -0.63198,-1.00674 0,0 0.42885,-0.14363 0.72687,0.13986 0,0 -0.6989,-1.12979 -1.88016,-1.10927 -0.008,8.2e-4 -0.0159,10e-4 -0.025,3.5e-4 0.008,-2.3e-4 0.0167,-2.3e-4 0.025,-3.5e-4 0.14412,-0.0148 0.0613,-0.2745 0.45022,-0.33134 0,0 -0.65696,-0.40642 -1.40566,0.0115 0,0 0.10653,-0.68357 0.47147,-0.85319 z m -0.78124,2.32379 c 0.32374,0.004 0.67035,0.15953 0.97931,0.54172 0.33206,-0.43758 0.89637,-0.54308 1.17307,-0.10794 0.2273,0.49696 0.13972,1.14005 -0.24103,1.49974 -0.2693,0.24831 -0.61941,0.30423 -1.19427,0.31874 -0.96289,0.0243 -1.89803,-0.27836 -1.89803,-0.9881 -0.0489,-0.63916 0.51806,-1.27135 1.18095,-1.26416 z"
         style="fill:none;fill-opacity:1;fill-rule:evenodd;stroke:#58473b;stroke-width:0.35171488;stroke-linecap:round;stroke-linejoin:round;stroke-miterlimit:4;stroke-dasharray:none;stroke-opacity:1;paint-order:stroke fill markers" />
      <path
         sodipodi:open="true"
         d="m -76.151556,308.36901 a 2.0482714,1.5626899 0 0 1 -2.024858,1.55542 2.0482714,1.5626899 0 0 1 -2.070893,-1.51973 2.0482714,1.5626899 0 0 1 1.958573,-1.60407 2.0482714,1.5626899 0 0 1 2.133583,1.46839"
         sodipodi:end="6.223751"
         sodipodi:start="0.004583502"
         sodipodi:ry="1.5626899"
         sodipodi:rx="2.0482714"
         sodipodi:cy="308.36185"
         sodipodi:cx="-78.199806"
         sodipodi:type="arc"
         id="path5758"
         style="opacity:1;fill:#fff6d5;fill-opacity:1;stroke:none;stroke-width:0.3992337;stroke-linecap:round;stroke-linejoin:round;stroke-miterlimit:4;stroke-dasharray:none;stroke-opacity:1;paint-order:stroke fill markers" />
      <path
         sodipodi:nodetypes="cccc"
         inkscape:connector-curvature="0"
         id="path4688-6-2-7-4-3-3"
         d="m -76.764089,309.40022 c 0,0 -0.844939,0.0198 -1.162648,-0.90273 -0.317699,-0.92256 1.428483,-1.03603 1.884054,-0.55937 -0.392908,0.83883 -0.352089,1.09157 -0.721406,1.4621 z"
         style="fill:#7e5b40;fill-opacity:1;stroke:none;stroke-width:0.06282359;stroke-linecap:butt;stroke-linejoin:miter;stroke-miterlimit:4;stroke-dasharray:none;stroke-opacity:1" />
      <path
         sodipodi:nodetypes="cccc"
         inkscape:connector-curvature="0"
         id="path4688-6-2-7-4-3"
         d="m -79.71195,309.56938 c 0,0 0.92923,-0.0826 1.24694,-1.00511 0.317709,-0.92257 -1.708324,-1.15051 -2.163882,-0.67386 -0.493857,0.86921 0.547153,1.30841 0.916942,1.67897 z"
         style="fill:#7e5b40;fill-opacity:1;stroke:none;stroke-width:0.06282359;stroke-linecap:butt;stroke-linejoin:miter;stroke-miterlimit:4;stroke-dasharray:none;stroke-opacity:1" />
      <path
         id="path5089-3"
         d="m -77.894169,305.14292 c 0,0 -0.60653,0 -0.89951,0.74529 0,0 -0.40091,-0.56541 -0.9149,-0.64251 0,0 0.39579,0.24159 0.34439,0.74016 0,0 -0.72562,-0.15258 -1.24898,0.64701 0,0 0.4216,-0.1599 0.55244,0.0327 0,0 -0.65531,0.23905 -0.66816,0.55258 0,0 0.0103,0.32891 -0.30839,0.48825 0,0 0.26602,0.0313 0.38596,-0.065 0,0 -0.40524,0.10145 -0.1,0.87196 0,0 0.24712,0.48704 -0.31986,0.79234 0,0 0.19626,0.007 0.46157,-0.1999 0.493438,1.69299 3.500927,1.04312 3.500927,1.04312 0,0 1.269283,-0.56302 1.174783,-2.03862 0,0 0.16718,0.007 0.30893,0.18172 0,0 0.11669,-0.27257 -0.63202,-1.00674 0,0 0.42885,-0.14363 0.72688,0.13986 0,0 -0.70871,-1.14603 -1.90517,-1.10888 0.17955,0.0134 0.0655,-0.27186 0.47525,-0.33173 0,0 -0.65698,-0.40644 -1.40568,0.0115 0,0 0.10656,-0.68358 0.47149,-0.8532 z m 1.13008,4.2573 c -0.2693,0.24832 -0.61938,0.30426 -1.19425,0.31876 -0.96288,0.0243 -2.427177,-0.27835 -2.427177,-0.98808 0.09424,-1.56937 1.246687,-1.79835 2.372024,-1.36856 1.606326,-0.65819 1.962935,1.32209 1.249403,2.03788 z"
         style="fill:#a37e56;fill-opacity:1;fill-rule:evenodd;stroke:none;stroke-width:0.02501083px;stroke-linecap:butt;stroke-linejoin:miter;stroke-opacity:1"
         inkscape:connector-curvature="0"
         sodipodi:nodetypes="ccccccccccccccccccccccccccc" />
      <ellipse
         ry="0.28496677"
         rx="0.43648851"
         cy="308.83047"
         cx="-78.149445"
         id="path4669-5-4-4-5"
         style="opacity:1;fill:#333333;fill-opacity:1;stroke:#313131;stroke-width:0.05305243;stroke-linecap:round;stroke-linejoin:round;stroke-miterlimit:4;stroke-dasharray:none;stroke-opacity:1;paint-order:markers fill stroke" />
      <path
         inkscape:connector-curvature="0"
         id="path5711"
         d="m -79.029868,308.36395 -0.708163,0.001 a 0.381849,0.31165771 0 0 0 -0.02739,0.11542 0.381849,0.31165771 0 0 0 0.381917,0.31169 0.381849,0.31165771 0 0 0 0.381667,-0.31169 0.381849,0.31165771 0 0 0 -0.02813,-0.11694 z"
         style="opacity:1;fill:#000000;fill-opacity:1;stroke:#000000;stroke-width:0.09681953;stroke-linecap:round;stroke-linejoin:round;stroke-miterlimit:4;stroke-dasharray:none;stroke-opacity:1;paint-order:markers fill stroke" />
      <path
         inkscape:connector-curvature="0"
         id="path5711-4"
         d="m -76.899989,308.354 -0.609306,0.001 a 0.32854599,0.26815284 0 0 0 -0.02359,0.0994 0.32854599,0.26815284 0 0 0 0.328606,0.26815 0.32854599,0.26815284 0 0 0 0.328386,-0.26815 0.32854599,0.26815284 0 0 0 -0.02417,-0.10073 z"
         style="opacity:1;fill:#000000;fill-opacity:1;stroke:#000000;stroke-width:0.08330433;stroke-linecap:round;stroke-linejoin:round;stroke-miterlimit:4;stroke-dasharray:none;stroke-opacity:1;paint-order:markers fill stroke" />
      <path
         inkscape:connector-curvature="0"
         id="path9222"
         d="m -80.044267,308.45557 c 0,0 0.817801,-0.30213 1.236765,0.0241"
         style="fill:none;stroke:#000000;stroke-width:0.13739976;stroke-linecap:butt;stroke-linejoin:miter;stroke-miterlimit:4;stroke-dasharray:none;stroke-opacity:1" />
      <path
         inkscape:connector-curvature="0"
         id="path9222-3"
         d="m -77.683187,308.39672 c 0,0 0.662076,-0.24462 1.001273,0.0196"
         style="fill:none;stroke:#000000;stroke-width:0.11123921;stroke-linecap:butt;stroke-linejoin:miter;stroke-miterlimit:4;stroke-dasharray:none;stroke-opacity:1" />
    </g>
  </g>
</svg>
